# xmcd
#
# Track frame offsets:
#	150
#	13511
#	28197
#	42768
#	56672
#	76207
#	91511
#	109923
#	123582
#	135000
#	146232
#	157590
#	178691
#	193744
#	207960
#	221633
#	235946
#	249953
#	265530
#	280926
#
# Disc length: 3940 seconds
#
# Revision: 0
# Processed by: cddbd v1.5.2PL0 Copyright (c) Steve Scherf et al.
# Submitted via: EasyCDDAExtractor 11.5.0.1
#
DISCID=0a0f6214
DTITLE=Various Artist - NCT 130
DYEAR=2010
DGENRE=Country
TTITLE0=Luke Bryan - Rain Is A Good Thing
TTITLE1=Jerrod Niemann - Lover, Lover
TTITLE2=Reba - I Keep On Lovin' You
TTITLE3=Margaret Durante - Use Somebody
TTITLE4=David Nail - Turning Home
TTITLE5=Bridgette Tatum - (I Like My) Cowboys Dirty
TTITLE6=Craig Morgan - This Ain't Nothin'
TTITLE7=Jewel - Stay Here Forever
TTITLE8=Tyler Dickerson - Tell Your Sister I'm Single
TTITLE9=Mark Chesnutt - Going On Later On
TTITLE10=Cledus T. Judd - Tiger By The Tail (The Tale Of Tiger Woods)
TTITLE11=Jo Dee Messina - That's God
TTITLE12=Coldwater Jane - Bring On The Love
TTITLE13=Ash Bowers - Ain't No Stopping Her Now
TTITLE14=Brady Seals - Been There, Drunk That
TTITLE15=Mustang Creek - Love Makes The World Go Round
TTITLE16=Jack Ingram - Free
TTITLE17=Marty Raybon - Daddy Phone
TTITLE18=Gwen Sebastian - Hard Rain
TTITLE19=Mallary Hope - Blossom In The Dust
EXTD=
EXTT0=
EXTT1=
EXTT2=
EXTT3=
EXTT4=
EXTT5=
EXTT6=
EXTT7=
EXTT8=
EXTT9=
EXTT10=
EXTT11=
EXTT12=
EXTT13=
EXTT14=
EXTT15=
EXTT16=
EXTT17=
EXTT18=
EXTT19=
PLAYORDER=
